<svg xmlns="http://www.w3.org/2000/svg" viewBox="0 0 315 70">
  <path d="M311.2 55.9c-.8 0-1-.9-1-.9V24.6h-5.7v25c-.1.1-3.8 7.2-8.9 7.2-2.7 0-3.5-1.4-3.5-3V24.6h-10.6v1.9h5v24.3s-.2 7.9 8.4 7.9c5.8 0 9-5.2 9.6-6.2v.2c-.1 3 1 5 2.5 5.1h7.9v-1.9h-3.7m-33.5-30.6c-.1-.1-.1-.2-.2-.2-.2-.3-.5-.5-.7-.6-.6-.4-1.4-.7-2.7-.7-3.2 0-4.7 1.6-6.1 3.7-.9 1.4-1.9 3.3-2.4 4.4 0-.6-.2-1.8-.9-3.7-.9-2.5-1.8-3.4-1.9-3.5h-7.6v1.9h4.8V56h-4.8v1.9h17.3V56h-6.8V35.6c.7-1.8 1.9-4.2 3.6-6.7 1.7-2.2 2.6-2.8 3.6-2.8.4 0 .4 2 .4 3v.5c0 4.3 1.3 5.4 2.9 5.4 1.6 0 2.8-1 2.8-5.4-.1-1.7-.6-3.3-1.3-4.3M247 49.2c-2.4 0-4.3 2.1-4.3 4.8 0 2.6 1.9 4.7 4.3 4.7 2.3 0 4.3-2.1 4.3-4.7s-1.9-4.8-4.3-4.8m-17.3-30.3h6.4v29.4l-18.6-31.2V17h-10.8v1.9h3.9v40.8h-3.9v1.9H219v-1.9h-6.5V22.8L236 62.5v-.1.1h2V18.9h4.2V17h-12.5v1.9m-67.9 40.8V19h4.2v-2h-11.9l-12.6 35.3-12-35.3h-11.8v1.9h4.2v40.7H118v1.9h12.4v-1.9h-5.9V21l14 41.9h2l14.8-41.4-.1 38.2h-4.6v1.9h15.8v-1.9h-4.6m18.3-15.1l5.4-17.3h.4l4.8 17.3h-10.6m9-28.5h-2.5L173 59.7h-4.3v1.9h12.8v-1.9h-6.2l4.2-13.3h11.7l3.7 13.3H190v1.9h15.5v-1.9h-4.2l-12.2-43.6m-82.8 33.6c0 9.5-2.7 10.9-8.2 10.9-5.5 0-8.2-1.4-8.2-10.7V29.7c0-9.4 2.8-10.8 8.2-10.8 5.5 0 8.2 1.4 8.2 10.9v19.9m-8.2-32.8c-10.1 0-16 6.2-16.1 17.8v9.9c.1 11.6 5.9 17.8 16 17.8s16-6.2 16-17.8v-9.9c.1-11.5-5.8-17.8-15.9-17.8m-7-14.1V0H71.5v2.8h9.4L66.6 52.7 52.9 2.8h8.5V0H36.5v2.8h7.7L30 52.7 16.3 2.8h8.5V0H0v2.8h6.2L24.7 70h3.1L45.1 9.6l.4-2.2L61.4 70h3.1L83.7 2.8h7.4M102.7 8.6V3.2c0-.2 0-1.1.1-1.5-.1.3-.2.6-.3.8l-3.3 6h-1V.9h1v5.5c0 .2 0 .8-.1 1.2.1-.3.3-.8.5-1.1l3.1-5.6h1.1v7.8h-1.1zM111.2 8.6V4.9h-3.4v3.7h-.9V.9h.9v3.2h3.4V.9h.9v7.7zM119.6 1.6h-2.2v7h-.9v-7h-2.2V.9h5.3zM121.7 8.6V.9h4.4l-.2.8h-3.2v2.5h2.7V5h-2.7v2.8h3.5v.8zM131.1 4.8c.8 0 1-.2 1.2-.4.2-.3.4-.6.4-1.1 0-.6-.2-1-.5-1.2-.4-.3-.9-.4-1.5-.4h-1v3.1h1.4zM131 .9c.7 0 1.2 0 1.7.4.9.6 1 1.4 1 1.9 0 .6-.1 1.3-.7 1.8-.7.6-1.4.6-1.9.6h-1.4v3.1h-.9V.9h2.2zM140.5 8.6V4.9h-3.4v3.7h-.9V.9h.9v3.2h3.4V.9h.9v7.7zM144.7 8.6V.9h4.3l-.1.8h-3.3v2.5h2.8V5h-2.8v2.8h3.5v.8zM155.6 1.6h-2.1v7h-1v-7h-2.1V.9h5.3zM163.4 2.6c0 .4-.1 1.9-.5 3.1-.2.8-.6 1.6-.8 2.1h3.4V1.6h-2l-.1 1zm3 5.3h.8v2.8h-.9V8.6h-4.7v2.1h-.9V7.9h.5c.6-1.2.9-2.2.9-2.5.3-1.2.4-2.3.5-3.3l.1-1.2h3.8v7zM171.4 3.4c-.1 2.4-.3 4-.9 4.7-.3.4-.8.4-1.2.5h-.4l-.1-.6h.2c.1 0 .3-.1.5-.2.7-.3 1-1.4 1.2-5.1l.1-1.9h3.8v7.8h-.9v-7h-2l-.3 1.8zM180.7 1.6c-.3 0-.7 0-1.1.2-.4.2-.7.6-.7 1.2s.3.9.5 1c.4.3.9.3 1.3.3h1V1.6h-1zm1 7V5.1h-1.2c-.4 0-.6.1-.8.3-.2.2-.3.6-.4.8l-.2 1c-.1.3-.1.7-.3 1-.2.2-.4.4-1 .4l-.6.1-.2-.7.2-.1c.1 0 .4-.1.5-.2.2-.1.3-.2.4-.6l.4-1.3c.1-.3.2-.6.4-.8.1-.2.4-.3.7-.4-.4 0-.8-.2-1-.4-.4-.3-.6-.8-.6-1.4 0-.6.2-1.2.8-1.6.5-.4 1.1-.5 2-.5h2v7.8h-1.1zM198.4 1.4l-.4.1c-.1 0-.3.1-.4.2-.1 0-.2.2-.3.5l-.3 1.1c-.1.3-.1.5-.3.8-.2.2-.3.4-.5.4.1.1.3.2.5.3.2.2.3.5.4.8l.5 1.6c.1.2.1.4.4.6.1.1.4.1.5.2l.2.1-.2.6-.6-.1c-.6-.1-.8-.2-.9-.4-.2-.3-.3-.6-.3-1l-.5-1.2c0-.1-.1-.6-.4-.8-.1-.1-.4-.3-.8-.3h-.8v3.7h-.9V4.9h-.8c-.4 0-.6.1-.8.3-.3.2-.4.7-.4.8l-.3 1.3c-.1.4-.1.7-.3 1-.1.2-.4.4-.9.4l-.7.1-.1-.8.2-.1c.1 0 .4-.1.5-.2.3-.1.3-.4.4-.6l.5-1.6c.1-.3.2-.6.4-.8.2-.2.3-.3.5-.3-.2-.1-.4-.2-.5-.4-.2-.3-.3-.5-.4-.8l-.3-1.1c-.1-.3-.2-.5-.3-.5-.1-.1-.3-.1-.4-.2l-.4-.1.2-.6.5.1c.2 0 .6.1.9.3.2.2.3.6.4.8l.2 1.1c0 .2.1.6.4.8.1.1.3.2.8.2h.9V.9h.9v3.3h.9c.5 0 .7-.2.8-.2.2-.2.3-.6.4-.8l.2-1.1c0-.2.2-.6.4-.8.3-.3.6-.3.9-.3l.5-.1-.1.5zM201.1 8.6V.9h4.3l-.1.8H202v2.5h2.8V5H202v2.8h3.5v.8zM212.4 8.6V4.9h-3.3v3.7h-1V.9h1v3.2h3.3V.9h1v7.7zM225 7.9v2.8h-.9V8.6h-7.5V.9h.9v7h2.5v-7h.9v7h2.4v-7h.9v7zM232.3 8.6V3.2c0-.2 0-1.1.1-1.5-.1.3-.2.6-.3.8l-3.3 6h-1V.9h1v5.5c0 .2 0 .8-.1 1.2.1-.3.3-.8.5-1.1l3.1-5.6h1.1v7.8h-1.1zM240.8 8.6V4.9h-3.4v3.7h-.9V.9h.9v3.2h3.4V.9h.9v7.7z"/>
</svg>
