<svg xmlns="http://www.w3.org/2000/svg" viewBox="0 0 136 30">
  <path d="M39.3 1.2V0h-8.5v1.2h4.1l-6.1 21.5-6-21.5h3.7V0H15.8v1.2h3.3L13 22.7 7 1.2h3.7V0H0v1.2h2.7l8 28.8H12l7.5-25.9.2-.9L26.5 30h1.3l8.3-28.8h3.2zm30.6 24.1v.2s.1-1.8 0-.2V8.1h1.8v-.8h-5.1l-5.4 15.2L56 7.4h-5.1v.8h1.8v17.4H51v.9h5.4v-.9h-2.5V9L60 27h.8l6.4-17.8v16.3h-2v.9H72v-.9h-2.1v-.2zM81.6 6.9h-1.1l-5.9 18.6h-1.9v.9h5.5v-.9h-2.7l1.8-5.7h5l1.6 5.7H82v.9h6.7v-.9h-1.8L81.6 6.9zm17.6 1.2h2.8v12.6L94 7.4h-4.7v.8H91v17.4h-1.7v.9h5.3v-.9h-2.8V9.8L102 26.9v-.1.1h.8V8.1h1.8v-.7h-5.4v.7zm-56.8-.9c-4.4 0-6.9 2.7-6.9 7.6V19c0 5 2.6 7.6 6.9 7.6 4.3 0 6.9-2.7 6.9-7.6v-4.2c0-4.9-2.6-7.6-6.9-7.6zm77.5 3.6s-.1 0-.1-.1c-.1 0-.2-.1-.3-.1-.3-.2-.7-.3-1.1-.3-1.4 0-2 .6-2.6 1.5-.4.6-.8 1.5-1.1 1.9 0-.3-.1-.8-.4-1.7-.4-1-.8-1.4-.8-1.5h-3.3v.9h2.1V24h-2.1v.8h7.5V24h-2.9v-8.7c.3-.9.8-1.8 1.5-3 .7-.9 1.1-1.2 1.6-1.2.2 0 .2.9.2 1.3v.2c0 1.9.6 2.4 1.2 2.4.7 0 1.2-.5 1.2-2.4-.1-.6-.3-1.4-.6-1.8zm-74 10.5c0 4.1-1.2 4.6-3.5 4.6-2.4 0-3.5-.6-3.6-4.6v-8.6c0-4 1.2-4.6 3.6-4.6 2.4 0 3.5.6 3.5 4.6v8.6zm31.8-2.2l2.3-7.4h.2l2.1 7.4h-4.6zm28.9 2.1c-1 0-1.8.9-1.8 1.9 0 1.2.8 2.1 1.8 2.1s1.8-.9 1.8-2.1c.1-1-.7-1.9-1.8-1.9zM136 24v.8h-3.4c-.7 0-1.1-.9-1.1-2.3-.3.5-1.7 2.7-4.2 2.7-3.7 0-3.6-3.5-3.6-3.5V11.4h-2.2v-.9h4.6v12.6c0 .6.4 1.2 1.5 1.2 2.2 0 3.8-3 3.8-3V10.5h2.4v13s.1.5.4.5h1.8z"/>
</svg>
